HIERARCHY
ROOT Hips
{
	OFFSET -0.179506 -22.333345 2.821913
	CHANNELS 6 Xposition Yposition Zposition Zrotation Yrotation Xrotation 
	JOINT LeftUpLeg
	{
		OFFSET 6.951974 -9.140623 -0.681533
		CHANNELS 3 Zrotation Yrotation Xrotation
		JOINT LeftLeg
		{
			OFFSET 3.427654 -37.519855 -0.449580
			CHANNELS 3 Zrotation Yrotation Xrotation
			JOINT LeftFoot
			{
				OFFSET -1.359570 -39.796059 -4.369333
				CHANNELS 3 Zrotation Yrotation Xrotation
				JOINT LeftToe
				{
					OFFSET 2.635814 -5.579078 11.928840
					CHANNELS 3 Zrotation Yrotation Xrotation
					End Site
					{
						OFFSET 0.000000 0.000000 0.000000
					}
				}
			}
		}
	}
	JOINT RightUpLeg
	{
		OFFSET -6.767048 -9.052170 -0.431982
		CHANNELS 3 Zrotation Yrotation Xrotation
		JOINT RightLeg
		{
			OFFSET -3.829005 -38.256897 -0.885003
			CHANNELS 3 Zrotation Yrotation Xrotation
			JOINT RightFoot
			{
				OFFSET 1.577377 -39.841461 -4.231180
				CHANNELS 3 Zrotation Yrotation Xrotation
				JOINT RightToe
				{
					OFFSET -2.537174 -4.814398 12.334795
					CHANNELS 3 Zrotation Yrotation Xrotation
					End Site
					{
						OFFSET 0.000000 0.000000 0.000000
					}
				}
			}
		}
	}
	JOINT Spine
	{
		OFFSET -0.253288 10.896323 -2.669631
		CHANNELS 3 Zrotation Yrotation Xrotation
		JOINT Spine1
		{
			OFFSET 0.548704 13.518043 0.109247
			CHANNELS 3 Zrotation Yrotation Xrotation
			JOINT Spine2
			{
				OFFSET 0.145701 5.292222 2.542457
				CHANNELS 3 Zrotation Yrotation Xrotation
				JOINT Neck
				{
					OFFSET -0.277840 21.387037 -4.285703
					CHANNELS 3 Zrotation Yrotation Xrotation
					JOINT Head
					{
						OFFSET 0.515184 6.496960 5.134897
						CHANNELS 3 Zrotation Yrotation Xrotation
						End Site
						{
							OFFSET 0.000000 0.000000 0.000000
						}
					}
				}
				JOINT LeftShoulder
				{
					OFFSET 7.884473 12.174932 -3.408961
					CHANNELS 3 Zrotation Yrotation Xrotation
					JOINT LeftArm
					{
						OFFSET 9.097692 3.046888 -0.886815
						CHANNELS 3 Zrotation Yrotation Xrotation
						JOINT LeftForeArm
						{
							OFFSET 25.961220 -1.277207 -2.745643
							CHANNELS 3 Zrotation Yrotation Xrotation
							JOINT LeftHand
							{
								OFFSET 24.923361 0.898606 -0.117091
								CHANNELS 3 Zrotation Yrotation Xrotation
								End Site
								{
									OFFSET 0.000000 0.000000 0.000000
								}
							}
						}
					}
				}
				JOINT RightShoulder
				{
					OFFSET -8.175920 11.883285 -3.861528
					CHANNELS 3 Zrotation Yrotation Xrotation
					JOINT RightArm
					{
						OFFSET -9.601238 3.255117 -0.914307
						CHANNELS 3 Zrotation Yrotation Xrotation
						JOINT RightForeArm
						{
							OFFSET -25.374195 -1.332924 -2.140099
							CHANNELS 3 Zrotation Yrotation Xrotation
							JOINT RightHand
							{
								OFFSET -25.529810 0.777228 -0.555919
								CHANNELS 3 Zrotation Yrotation Xrotation
								End Site
								{
									OFFSET 0.000000 0.000000 0.000000
								}
							}
						}
					}
				}
			}
		}
	}
}
MOTION
Frames: 5
Frame Time: 0.033333
-0.179506 113.282974 2.821913 179.504759 1.528154 -177.405459 6.261590 4.984807 1.682552 -1.400392 -6.083312 8.294708 -1.572028 11.571254 -11.338299 0.542228 1.253613 0.066130 -7.108367 -5.626887 0.314043 -0.268170 0.845807 8.279137 2.614602 -10.512294 -10.707033 1.773507 -1.301828 -1.173504 -0.001131 1.421186 -2.360654 3.088992 -4.142264 7.580186 -0.657592 0.772190 -4.019052 -4.381834 -0.064602 11.849516 3.684723 3.499020 -2.735165 -19.447427 1.968103 2.427786 -16.883121 -0.415539 7.675455 3.279900 -60.657763 4.030790 -2.170486 -20.146553 5.631179 14.818875 2.046123 1.983722 19.223147 -1.559838 1.038906 -13.644775 61.965652 -3.822907 3.389314 15.420363 3.980184 
-0.485078 113.358719 2.842776 179.647885 1.345677 -177.348804 6.169707 4.997694 1.543436 -1.345206 -6.097518 8.321636 -1.660043 11.594175 -11.413548 0.460928 1.320966 0.089510 -7.073187 -5.621360 0.341983 -0.375752 0.910941 8.105780 2.825522 -10.645374 -10.118888 1.796117 -1.383901 -1.119731 -0.083477 1.432175 -2.665606 3.238834 -4.267317 8.054132 -0.638819 0.772062 -4.197009 -4.294800 -0.049704 12.648880 3.825498 3.128697 -2.789372 -18.833540 2.100250 2.496884 -15.886005 -0.344259 7.666893 3.011634 -62.222469 4.143571 -1.871918 -20.602878 5.349208 14.231790 1.893154 1.981331 18.366460 -1.895852 0.641435 -14.136717 62.914536 -4.747458 2.609768 15.860743 3.111107 
-0.869288 113.491348 2.845210 179.827007 1.077623 -177.211032 6.055633 4.986168 1.242032 -1.281375 -6.119172 8.469939 -1.830712 11.550031 -11.356657 0.395640 1.355418 0.068285 -7.010379 -5.549002 0.216687 -0.502465 1.010417 8.071938 3.052640 -10.891327 -9.230798 1.810538 -1.436448 -1.080828 -0.141628 1.405498 -2.805024 3.344833 -4.389279 8.402782 -0.531720 0.777849 -4.277822 -4.262588 0.014420 13.681558 4.126707 2.912135 -2.796413 -17.960570 2.053223 2.530579 -14.649035 -0.342266 7.435122 2.877623 -64.240321 4.042086 -1.403894 -21.242696 4.901362 13.331192 1.834550 1.928168 17.456874 -2.110925 -0.011037 -14.802491 63.914980 -5.799281 1.573606 16.300447 2.335213 
-1.163067 113.650055 3.026271 179.915609 0.716696 -177.029232 5.864463 4.922058 0.891163 -1.131162 -6.282701 8.309499 -2.037361 11.565522 -11.097406 0.227858 1.383334 0.028955 -6.869793 -5.469494 0.052327 -0.745757 1.139553 7.770460 3.254729 -11.315104 -8.352875 1.849180 -1.463121 -1.031860 -0.155896 1.311375 -2.633869 3.347184 -4.439325 8.455010 -0.290620 0.755194 -4.139684 -4.336916 -0.075279 14.614292 4.569299 2.804281 -2.965815 -16.567472 1.692945 2.375234 -13.194784 -0.582619 7.129291 2.386813 -66.526903 4.290031 -0.899448 -21.914054 3.981751 11.900574 1.889162 1.752193 16.212671 -2.275215 -0.828770 -15.916535 65.196978 -7.463186 0.549507 16.631755 1.334628 
-1.669823 113.816360 3.005305 -179.848358 0.282826 -176.606884 5.669287 4.847685 0.250650 -1.017133 -6.496479 8.463574 -2.215759 11.611337 -10.963060 0.122172 1.431039 -0.046031 -6.656268 -5.472970 -0.380346 -1.052453 1.395144 7.649236 3.453107 -11.800531 -7.119809 1.916753 -1.497139 -1.030561 -0.099672 1.285400 -1.961821 3.237164 -4.451985 8.277775 0.107015 0.708294 -3.856972 -4.447945 -0.135930 15.632375 5.144492 2.695305 -2.863984 -14.868810 0.962266 2.301763 -11.421158 -0.816580 6.502975 2.663628 -68.577665 4.054140 -0.162956 -22.371568 3.457676 10.041268 2.358221 1.696642 14.728489 -2.413210 -1.928755 -17.519687 66.228562 -9.176295 -0.554886 16.727739 0.909288 
